<?xml version="1.0" encoding="utf-8"?>
<!-- Generator: Adobe Illustrator 25.4.1, SVG Export Plug-In . SVG Version: 6.00 Build 0)  -->
<svg version="1.1" id="レイヤー_1" xmlns="http://www.w3.org/2000/svg" xmlns:xlink="http://www.w3.org/1999/xlink" x="0px"
	 y="0px" viewBox="0 0 311.9 35.3" style="enable-background:new 0 0 311.9 35.3;" xml:space="preserve">
<g>
	<path d="M0.5,31.5C0.1,31.1,0,30.6,0.3,30l2.3-4c0.4-0.6,1.2-0.6,1.7-0.3c1.4,0.9,3.9,2.7,7,2.7c2,0,3.4-1.2,3.4-2.9
		c0-2.1-1.8-3.4-5-4.9C4.8,18.3,0,15.6,0,9.7C0,4.9,3.8,0,11.3,0c5.1,0,9,2.6,10.5,3.7c0.6,0.3,0.5,1.2,0.3,1.6L19.6,9
		c-0.3,0.5-1.2,0.9-2.2,0.3c-1.1-0.8-4-2.6-6.6-2.6c-2.1,0-3,1.3-3,2.7c0,1.6,1.9,2.9,5.3,4.6c4.3,2.1,9.9,4.5,9.9,11.2
		c0,5-4.4,10.1-11.6,10.1C5.1,35.3,1.6,32.6,0.5,31.5z"/>
	<path d="M35.7,0.9c0-0.5,0.4-0.9,0.9-0.9h0.7c0.5,0,0.8,0.3,1.2,0.7l18.8,18.1h0V1.4c0-0.5,0.4-0.9,0.9-0.9h5.9
		c0.5,0,0.9,0.4,0.9,0.9v33c0,0.6-0.4,0.9-0.9,0.9h-0.5c-0.5,0-0.8-0.1-1.2-0.5l-19-19.1h0v18.3c0,0.5-0.4,0.9-0.9,0.9h-5.8
		c-0.5,0-0.9-0.4-0.9-0.9L35.7,0.9z"/>
	<path d="M79.7,1.7c0-0.6,0.5-1.2,1.2-1.2h5.7c0.6,0,1.2,0.5,1.2,1.2v13.1L98.7,1c0.2-0.2,0.6-0.5,0.9-0.5h6.2
		c0.9,0,1.4,1.1,0.9,1.8L95.2,16.8l12.5,16.1c0.5,0.7,0,1.8-0.9,1.8H100c-0.3,0-0.8-0.2-0.9-0.3L87.8,19.2v14.4
		c0,0.6-0.5,1.2-1.2,1.2h-5.7c-0.7,0-1.2-0.5-1.2-1.2V1.7z"/>
	<path d="M120.1,1.4c0-0.5,0.4-0.9,0.9-0.9h14.6c6.2,0,10.7,4.7,10.7,10.6c0,4.5-2.7,8.1-7.2,9.8l6.7,12.4c0.3,0.6,0,1.4-0.8,1.4
		h-6.5c-0.4,0-0.7-0.2-0.8-0.4l-6.5-13h-3.4v12.5c0,0.5-0.4,0.9-0.9,0.9H121c-0.5,0-0.9-0.4-0.9-0.9V1.4z M135,15.1
		c2,0,3.7-1.6,3.7-3.9c0-2.3-1.7-3.7-3.7-3.7h-7.2v7.6H135z"/>
	<path d="M159.2,1.4c0-0.5,0.4-0.9,0.9-0.9h11.6c9.2,0,16.7,7.7,16.7,17.1c0,9.5-7.5,17.2-16.7,17.2h-11.6c-0.5,0-0.9-0.4-0.9-0.9
		V1.4z M171.6,27.5c5.4,0,8.8-4.4,8.8-9.9c0-5.5-3.5-9.9-8.8-9.9h-5v19.8H171.6z"/>
	<path d="M199.5,1.4c0-0.5,0.4-0.9,0.9-0.9h6c0.5,0,0.9,0.4,0.9,0.9v20.4c0,3.6,2.5,5.6,6,5.6c3.5,0,6.1-2,6.1-5.6V1.4
		c0-0.5,0.4-0.9,0.9-0.9h6c0.5,0,0.9,0.4,0.9,0.9v20.8c0,7.4-6.3,13-14,13c-7.7,0-13.9-5.6-13.9-13V1.4z"/>
	<path d="M240.6,0.9c0-0.5,0.4-0.9,0.9-0.9h0.7c0.5,0,0.8,0.3,1.2,0.7l18.8,18.1h0V1.4c0-0.5,0.4-0.9,0.9-0.9h5.9
		c0.5,0,0.9,0.4,0.9,0.9v33c0,0.6-0.4,0.9-0.9,0.9h-0.5c-0.5,0-0.8-0.1-1.2-0.5l-19-19.1h0v18.3c0,0.5-0.4,0.9-0.9,0.9h-5.8
		c-0.5,0-0.9-0.4-0.9-0.9L240.6,0.9z"/>
	<path d="M283.8,1.7c0-0.6,0.5-1.2,1.2-1.2h5.7c0.6,0,1.2,0.5,1.2,1.2v13.1L302.7,1c0.2-0.2,0.6-0.5,0.9-0.5h6.2
		c0.9,0,1.4,1.1,0.9,1.8l-11.5,14.5l12.5,16.1c0.5,0.7,0,1.8-0.9,1.8H304c-0.3,0-0.8-0.2-0.9-0.3l-11.3-15.2v14.4
		c0,0.6-0.5,1.2-1.2,1.2h-5.7c-0.7,0-1.2-0.5-1.2-1.2V1.7z"/>
</g>
</svg>
